<svg width="24" height="24" viewBox="0 0 24 24" fill="none" xmlns="http://www.w3.org/2000/svg">
<rect x="7.80432" y="5.71741" width="15.6957" height="17.7826" fill="#085CAC" stroke="black" stroke-dasharray="2 2"/>
<rect x="0.5" y="0.5" width="15.6957" height="17.7826" stroke="#21BF73" stroke-dasharray="2 2"/>
<g clip-path="url(#clip0_442_5510)">
<mask id="mask0_442_5510" style="mask-type:alpha" maskUnits="userSpaceOnUse" x="9" y="7" width="13" height="13">
<rect x="9.36584" y="7.60974" width="11.7073" height="11.7073" fill="#D9D9D9"/>
</mask>
<g mask="url(#mask0_442_5510)">
<path d="M12.2927 17.8536V9.07312H15.7074C16.5204 9.07312 17.2114 9.35767 17.7805 9.92678C18.3496 10.4959 18.6342 11.1869 18.6342 11.9999C18.6342 12.813 18.3496 13.504 17.7805 14.0731C17.2114 14.6422 16.5204 14.9268 15.7074 14.9268H14.2439V17.8536H12.2927ZM14.2439 12.9756H15.8049C16.0732 12.9756 16.3029 12.88 16.4939 12.689C16.685 12.4979 16.7805 12.2682 16.7805 11.9999C16.7805 11.7317 16.685 11.502 16.4939 11.3109C16.3029 11.1199 16.0732 11.0243 15.8049 11.0243H14.2439V12.9756Z" fill="black"/>
</g>
</g>
<defs>
<clipPath id="clip0_442_5510">
<rect width="11.7073" height="11.7073" fill="white" transform="translate(9.36584 7.60974)"/>
</clipPath>
</defs>
</svg>
