<svg width="27" height="43" viewBox="0 0 27 43" fill="none" xmlns="http://www.w3.org/2000/svg">
<g clip-path="url(#clip0_439_6748)">
<g filter="url(#filter0_f_439_6748)">
<ellipse cx="13.5" cy="39.5" rx="4.5" ry="2.5" fill="black" fill-opacity="0.12"/>
</g>
<mask id="path-2-outside-1_439_6748" maskUnits="userSpaceOnUse" x="0" y="0" width="27" height="40" fill="black">
<rect fill="white" width="27" height="40"/>
<path fill-rule="evenodd" clip-rule="evenodd" d="M26 13.5C26 16.3253 25.0627 18.9316 23.4821 21.025C22.9203 21.8066 22.1609 22.6384 21.3202 23.5591C18.4001 26.7571 14.5 31.0285 14.5 38C14.5 38.5523 14.0523 39 13.5 39C12.9477 39 12.5 38.5523 12.5 38C12.5 31.0285 8.59989 26.7571 5.67984 23.5591C4.83915 22.6384 4.07969 21.8066 3.51793 21.025C1.93731 18.9316 1 16.3253 1 13.5C1 6.59644 6.59644 1 13.5 1C20.4036 1 26 6.59644 26 13.5Z"/>
</mask>
<path fill-rule="evenodd" clip-rule="evenodd" d="M26 13.5C26 16.3253 25.0627 18.9316 23.4821 21.025C22.9203 21.8066 22.1609 22.6384 21.3202 23.5591C18.4001 26.7571 14.5 31.0285 14.5 38C14.5 38.5523 14.0523 39 13.5 39C12.9477 39 12.5 38.5523 12.5 38C12.5 31.0285 8.59989 26.7571 5.67984 23.5591C4.83915 22.6384 4.07969 21.8066 3.51793 21.025C1.93731 18.9316 1 16.3253 1 13.5C1 6.59644 6.59644 1 13.5 1C20.4036 1 26 6.59644 26 13.5Z" fill="#C28B29"/>
<path d="M23.4821 21.025L22.684 20.4224L22.6769 20.4318L22.67 20.4414L23.4821 21.025ZM21.3202 23.5591L22.0586 24.2334L21.3202 23.5591ZM5.67984 23.5591L6.41831 22.8848L6.41831 22.8848L5.67984 23.5591ZM3.51793 21.025L4.32995 20.4414L4.32309 20.4318L4.316 20.4225L3.51793 21.025ZM24.2801 21.6276C25.9873 19.3666 27 16.5501 27 13.5H25C25 16.1004 24.1381 18.4966 22.684 20.4224L24.2801 21.6276ZM22.0586 24.2334C22.8872 23.326 23.6911 22.4477 24.2941 21.6086L22.67 20.4414C22.1496 21.1656 21.4345 21.9508 20.5817 22.8848L22.0586 24.2334ZM15.5 38C15.5 31.4506 19.1345 27.4359 22.0586 24.2334L20.5817 22.8848C17.6658 26.0783 13.5 30.6065 13.5 38H15.5ZM13.5 40C14.6046 40 15.5 39.1046 15.5 38H13.5V40ZM11.5 38C11.5 39.1046 12.3954 40 13.5 40V38H11.5ZM4.94136 24.2334C7.86553 27.4359 11.5 31.4506 11.5 38H13.5C13.5 30.6065 9.33425 26.0783 6.41831 22.8848L4.94136 24.2334ZM2.70591 21.6087C3.30894 22.4477 4.11284 23.326 4.94136 24.2334L6.41831 22.8848C5.56546 21.9508 4.85045 21.1656 4.32995 20.4414L2.70591 21.6087ZM0 13.5C0 16.5501 1.01274 19.3666 2.71987 21.6276L4.316 20.4225C2.86188 18.4966 2 16.1004 2 13.5H0ZM13.5 0C6.04416 0 0 6.04416 0 13.5H2C2 7.14873 7.14873 2 13.5 2V0ZM27 13.5C27 6.04416 20.9558 0 13.5 0V2C19.8513 2 25 7.14873 25 13.5H27Z" fill="url(#paint0_linear_439_6748)" mask="url(#path-2-outside-1_439_6748)"/>
</g>
<mask id="mask0_439_6748" style="mask-type:alpha" maskUnits="userSpaceOnUse" x="4" y="4" width="20" height="20">
<rect x="4" y="4" width="20" height="20" fill="#D9D9D9"/>
</mask>
<g mask="url(#mask0_439_6748)">
<path d="M8.58337 22.3333V16.0833H7.33337V11.5C7.33337 11.0416 7.49657 10.6493 7.82296 10.3229C8.14935 9.99649 8.54171 9.83329 9.00004 9.83329H11.5C11.9584 9.83329 12.3507 9.99649 12.6771 10.3229C13.0035 10.6493 13.1667 11.0416 13.1667 11.5V16.0833H11.9167V22.3333H8.58337ZM10.25 8.99996C9.79171 8.99996 9.39935 8.83677 9.07296 8.51038C8.74657 8.18399 8.58337 7.79163 8.58337 7.33329C8.58337 6.87496 8.74657 6.4826 9.07296 6.15621C9.39935 5.82982 9.79171 5.66663 10.25 5.66663C10.7084 5.66663 11.1007 5.82982 11.4271 6.15621C11.7535 6.4826 11.9167 6.87496 11.9167 7.33329C11.9167 7.79163 11.7535 8.18399 11.4271 8.51038C11.1007 8.83677 10.7084 8.99996 10.25 8.99996ZM16.5 22.3333V17.3333H14L16.125 10.9583C16.2362 10.5972 16.441 10.3194 16.7396 10.125C17.0382 9.93051 17.375 9.83329 17.75 9.83329C18.125 9.83329 18.4618 9.93051 18.7605 10.125C19.0591 10.3194 19.2639 10.5972 19.375 10.9583L21.5 17.3333H19V22.3333H16.5ZM17.75 8.99996C17.2917 8.99996 16.8993 8.83677 16.573 8.51038C16.2466 8.18399 16.0834 7.79163 16.0834 7.33329C16.0834 6.87496 16.2466 6.4826 16.573 6.15621C16.8993 5.82982 17.2917 5.66663 17.75 5.66663C18.2084 5.66663 18.6007 5.82982 18.9271 6.15621C19.2535 6.4826 19.4167 6.87496 19.4167 7.33329C19.4167 7.79163 19.2535 8.18399 18.9271 8.51038C18.6007 8.83677 18.2084 8.99996 17.75 8.99996Z" fill="black"/>
</g>
<defs>
<filter id="filter0_f_439_6748" x="7" y="35" width="13" height="9" filterUnits="userSpaceOnUse" color-interpolation-filters="sRGB">
<feFlood flood-opacity="0" result="BackgroundImageFix"/>
<feBlend mode="normal" in="SourceGraphic" in2="BackgroundImageFix" result="shape"/>
<feGaussianBlur stdDeviation="1" result="effect1_foregroundBlur_439_6748"/>
</filter>
<linearGradient id="paint0_linear_439_6748" x1="13.5" y1="1" x2="13.5" y2="39" gradientUnits="userSpaceOnUse">
<stop stop-color="white"/>
<stop offset="1" stop-color="white" stop-opacity="0.35"/>
</linearGradient>
<clipPath id="clip0_439_6748">
<rect width="27" height="43" fill="white"/>
</clipPath>
</defs>
</svg>
