<svg width="24" height="24" viewBox="0 0 24 24" fill="none" xmlns="http://www.w3.org/2000/svg">
<g clip-path="url(#clip0_439_5353)">
<mask id="mask0_439_5353" style="mask-type:alpha" maskUnits="userSpaceOnUse" x="0" y="0" width="24" height="24">
<rect width="24" height="24" fill="#D9D9D9"/>
</mask>
<g mask="url(#mask0_439_5353)">
<path d="M6 21V3H13C14.6667 3 16.0833 3.58333 17.25 4.75C18.4167 5.91667 19 7.33333 19 9C19 10.6667 18.4167 12.0833 17.25 13.25C16.0833 14.4167 14.6667 15 13 15H10V21H6ZM10 11H13.2C13.75 11 14.2208 10.8042 14.6125 10.4125C15.0042 10.0208 15.2 9.55 15.2 9C15.2 8.45 15.0042 7.97917 14.6125 7.5875C14.2208 7.19583 13.75 7 13.2 7H10V11Z" fill="#085CAC"/>
</g>
</g>
<defs>
<clipPath id="clip0_439_5353">
<rect width="24" height="24" fill="white"/>
</clipPath>
</defs>
</svg>
