<svg width="27" height="43" viewBox="0 0 27 43" fill="none" xmlns="http://www.w3.org/2000/svg">
<g clip-path="url(#clip0_439_6781)">
<g filter="url(#filter0_f_439_6781)">
<ellipse cx="13.5" cy="39.5" rx="4.5" ry="2.5" fill="black" fill-opacity="0.12"/>
</g>
<mask id="path-2-outside-1_439_6781" maskUnits="userSpaceOnUse" x="0" y="0" width="27" height="40" fill="black">
<rect fill="white" width="27" height="40"/>
<path fill-rule="evenodd" clip-rule="evenodd" d="M26 13.5C26 16.3253 25.0627 18.9316 23.4821 21.025C22.9203 21.8066 22.1609 22.6384 21.3202 23.5591C18.4001 26.7571 14.5 31.0285 14.5 38C14.5 38.5523 14.0523 39 13.5 39C12.9477 39 12.5 38.5523 12.5 38C12.5 31.0285 8.59989 26.7571 5.67984 23.5591C4.83915 22.6384 4.07969 21.8066 3.51793 21.025C1.93731 18.9316 1 16.3253 1 13.5C1 6.59644 6.59644 1 13.5 1C20.4036 1 26 6.59644 26 13.5Z"/>
</mask>
<path fill-rule="evenodd" clip-rule="evenodd" d="M26 13.5C26 16.3253 25.0627 18.9316 23.4821 21.025C22.9203 21.8066 22.1609 22.6384 21.3202 23.5591C18.4001 26.7571 14.5 31.0285 14.5 38C14.5 38.5523 14.0523 39 13.5 39C12.9477 39 12.5 38.5523 12.5 38C12.5 31.0285 8.59989 26.7571 5.67984 23.5591C4.83915 22.6384 4.07969 21.8066 3.51793 21.025C1.93731 18.9316 1 16.3253 1 13.5C1 6.59644 6.59644 1 13.5 1C20.4036 1 26 6.59644 26 13.5Z" fill="#21BF73"/>
<path d="M23.4821 21.025L22.684 20.4224L22.6769 20.4318L22.67 20.4414L23.4821 21.025ZM21.3202 23.5591L22.0586 24.2334L21.3202 23.5591ZM5.67984 23.5591L6.41831 22.8848L6.41831 22.8848L5.67984 23.5591ZM3.51793 21.025L4.32995 20.4414L4.32309 20.4318L4.316 20.4225L3.51793 21.025ZM24.2801 21.6276C25.9873 19.3666 27 16.5501 27 13.5H25C25 16.1004 24.1381 18.4966 22.684 20.4224L24.2801 21.6276ZM22.0586 24.2334C22.8872 23.326 23.6911 22.4477 24.2941 21.6086L22.67 20.4414C22.1496 21.1656 21.4345 21.9508 20.5817 22.8848L22.0586 24.2334ZM15.5 38C15.5 31.4506 19.1345 27.4359 22.0586 24.2334L20.5817 22.8848C17.6658 26.0783 13.5 30.6065 13.5 38H15.5ZM13.5 40C14.6046 40 15.5 39.1046 15.5 38H13.5V40ZM11.5 38C11.5 39.1046 12.3954 40 13.5 40V38H11.5ZM4.94136 24.2334C7.86553 27.4359 11.5 31.4506 11.5 38H13.5C13.5 30.6065 9.33425 26.0783 6.41831 22.8848L4.94136 24.2334ZM2.70591 21.6087C3.30894 22.4477 4.11284 23.326 4.94136 24.2334L6.41831 22.8848C5.56546 21.9508 4.85045 21.1656 4.32995 20.4414L2.70591 21.6087ZM0 13.5C0 16.5501 1.01274 19.3666 2.71987 21.6276L4.316 20.4225C2.86188 18.4966 2 16.1004 2 13.5H0ZM13.5 0C6.04416 0 0 6.04416 0 13.5H2C2 7.14873 7.14873 2 13.5 2V0ZM27 13.5C27 6.04416 20.9558 0 13.5 0V2C19.8513 2 25 7.14873 25 13.5H27Z" fill="url(#paint0_linear_439_6781)" mask="url(#path-2-outside-1_439_6781)"/>
</g>
<mask id="mask0_439_6781" style="mask-type:alpha" maskUnits="userSpaceOnUse" x="4" y="3" width="20" height="20">
<rect x="4" y="3" width="20" height="20" fill="#D9D9D9"/>
</mask>
<g mask="url(#mask0_439_6781)">
<path d="M11.6667 10.6666L13.5209 7.60413L12.2917 5.56246C12.125 5.28468 11.8855 5.14579 11.573 5.14579C11.2605 5.14579 11.0209 5.28468 10.8542 5.56246L8.81254 8.95829L11.6667 10.6666ZM19.7292 16.3333L17.875 13.25L20.7709 11.5833L22.1042 13.8125C22.257 14.0486 22.3403 14.3125 22.3542 14.6041C22.3681 14.8958 22.3056 15.1666 22.1667 15.4166C22.0278 15.6944 21.823 15.9166 21.5521 16.0833C21.2813 16.25 20.9862 16.3333 20.6667 16.3333H19.7292ZM17.3334 22.1666L14 18.8333L17.3334 15.5V17.1666H21.2917L20.0834 19.5833C19.9306 19.8611 19.7223 20.0833 19.4584 20.25C19.1945 20.4166 18.9028 20.5 18.5834 20.5H17.3334V22.1666ZM9.27087 20.5C8.9931 20.5 8.73962 20.427 8.51046 20.2812C8.28129 20.1354 8.11115 19.9444 8.00004 19.7083C7.88893 19.4861 7.83685 19.2534 7.84379 19.0104C7.85074 18.7673 7.91671 18.5416 8.04171 18.3333L8.75004 17.1666H12.3334V20.5H9.27087ZM7.20837 18.125L5.85421 15.4166C5.72921 15.1666 5.67018 14.8993 5.67712 14.6145C5.68407 14.3298 5.76393 14.0625 5.91671 13.8125L6.25004 13.25L4.83337 12.3958L9.39587 11.25L10.5417 15.8333L9.10421 14.9583L7.20837 18.125ZM18.4584 11L13.8959 9.85413L15.3334 8.99996L12.7292 4.66663H15.6667C15.9584 4.66663 16.2327 4.73954 16.4896 4.88538C16.7466 5.03121 16.9514 5.22913 17.1042 5.47913L18.1875 7.29163L19.6042 6.41663L18.4584 11Z" fill="black"/>
</g>
<defs>
<filter id="filter0_f_439_6781" x="7" y="35" width="13" height="9" filterUnits="userSpaceOnUse" color-interpolation-filters="sRGB">
<feFlood flood-opacity="0" result="BackgroundImageFix"/>
<feBlend mode="normal" in="SourceGraphic" in2="BackgroundImageFix" result="shape"/>
<feGaussianBlur stdDeviation="1" result="effect1_foregroundBlur_439_6781"/>
</filter>
<linearGradient id="paint0_linear_439_6781" x1="13.5" y1="1" x2="13.5" y2="39" gradientUnits="userSpaceOnUse">
<stop stop-color="white"/>
<stop offset="1" stop-color="white" stop-opacity="0.35"/>
</linearGradient>
<clipPath id="clip0_439_6781">
<rect width="27" height="43" fill="white"/>
</clipPath>
</defs>
</svg>
